# xmcd CD database file
#
# Track frame offsets:
#	150
#	25880
#	61437
#	97095
#	121063
#	149273
#	175737
#	202288
#	231851
#	261449
#
# Disc length: 3906 seconds
#
# Revision: 0
# Processed by: cddbd v1.5.2PL0 Copyright (c) Steve Scherf et al.
# Submitted via: CDex 1.70beta2
#
DISCID=940f400a
DTITLE=多田誠司 the MOST - re:mark
DYEAR=2007
DGENRE=Jazz
TTITLE0=re:mark
TTITLE1=B Trane
TTITLE2=Rojo y Negro
TTITLE3=Straight Flash
TTITLE4=Boulogne
TTITLE5=Tarjeta Amarilla
TTITLE6=Contrail
TTITLE7=Loose Shuffle
TTITLE8=Second Half
TTITLE9=My Shining Hour
EXTD=YEAR: 2007
EXTT0=
EXTT1=
EXTT2=
EXTT3=
EXTT4=
EXTT5=
EXTT6=
EXTT7=
EXTT8=
EXTT9=
PLAYORDER=
